<?xml version="1.0" encoding="UTF-8" standalone="no"?>
<!-- Created with Inkscape (http://www.inkscape.org/) -->

<svg
   width="210mm"
   height="297mm"
   viewBox="0 0 210 297"
   version="1.1"
   id="svg5"
   inkscape:version="1.2.2 (b0a8486541, 2022-12-01)"
   sodipodi:docname="wrong checkers.svg"
   xmlns:inkscape="http://www.inkscape.org/namespaces/inkscape"
   xmlns:sodipodi="http://sodipodi.sourceforge.net/DTD/sodipodi-0.dtd"
   xmlns="http://www.w3.org/2000/svg"
   xmlns:svg="http://www.w3.org/2000/svg">
  <sodipodi:namedview
     id="namedview7"
     pagecolor="#ffffff"
     bordercolor="#000000"
     borderopacity="0.25"
     inkscape:showpageshadow="2"
     inkscape:pageopacity="0.0"
     inkscape:pagecheckerboard="0"
     inkscape:deskcolor="#d1d1d1"
     inkscape:document-units="mm"
     showgrid="false"
     inkscape:zoom="1.1916084"
     inkscape:cx="272.321"
     inkscape:cy="561.42603"
     inkscape:window-width="1920"
     inkscape:window-height="1007"
     inkscape:window-x="0"
     inkscape:window-y="0"
     inkscape:window-maximized="1"
     inkscape:current-layer="layer1" />
  <defs
     id="defs2">
    <rect
       x="311.76822"
       y="517.53329"
       width="134.93007"
       height="43.726557"
       id="rect2498" />
  </defs>
  <g
     inkscape:label="Layer 1"
     inkscape:groupmode="layer"
     id="layer1">
    <rect
       style="fill:#00ffc6;stroke-width:0.79375"
       id="rect234"
       width="10.525884"
       height="11.066167"
       x="54.843052"
       y="57.558811" />
    <rect
       style="fill:#00ffc6;stroke-width:0.79375"
       id="rect236"
       width="10.380229"
       height="11.066167"
       x="80.448921"
       y="57.558811" />
    <rect
       style="fill:#00ffc6;stroke-width:0.79375"
       id="rect238"
       width="11.44657"
       height="13.180987"
       x="43.396477"
       y="68.624977" />
    <rect
       style="fill:#00ffc6;stroke-width:0.79375"
       id="rect240"
       width="15.079987"
       height="13.180987"
       x="65.368935"
       y="68.624977" />
    <rect
       style="fill:#00ffc6;stroke-width:0.79375"
       id="rect242"
       width="10.525887"
       height="11.744262"
       x="54.843048"
       y="81.805962" />
    <rect
       style="fill:#00ffc6;stroke-width:0.79375"
       id="rect244"
       width="10.380229"
       height="11.744262"
       x="80.448921"
       y="81.805962" />
    <rect
       style="fill:#00ffc6;stroke-width:0.79375"
       id="rect246"
       width="15.079987"
       height="12.202168"
       x="65.368935"
       y="93.550224" />
    <rect
       style="fill:#00ffc6;stroke-width:0.79375"
       id="rect248"
       width="11.44657"
       height="12.202168"
       x="43.396473"
       y="93.550224" />
    <path
       style="fill:#ff0000;stroke-width:0.79375"
       id="path429"
       d="m 56.961804,63.625864 c -0.668105,1.330362 -1.486919,2.578058 -2.26758,3.843626 -1.038492,1.680744 -2.249768,3.244355 -3.550198,4.728657 -0.65469,0.719982 -1.306824,1.442313 -1.991203,2.134357 -0.172752,0.16419 -0.09136,0.09139 -0.242121,0.220673 0,0 3.372081,2.064745 3.372081,2.064745 v 0 c 0.135273,-0.158449 0.06267,-0.07179 0.216892,-0.260737 0.604681,-0.754409 1.231069,-1.490577 1.846439,-2.236216 1.234692,-1.553998 2.414059,-3.148883 3.515159,-4.801041 0.84259,-1.237012 1.626698,-2.512894 2.495286,-3.732073 0,0 -3.394755,-1.961991 -3.394755,-1.961991 z" />
    <path
       style="fill:#ff0000;stroke-width:0.79375"
       id="path431"
       d="m 58.368413,64.383327 c 0.798481,1.041802 1.666143,2.024454 2.579841,2.965762 0.690174,0.706432 1.450967,1.336307 2.193531,1.985433 0.535726,0.468545 0.984589,1.020927 1.41474,1.584783 0.517271,0.699833 1.016289,1.412607 1.535555,2.111081 0.451699,0.642419 0.944732,1.252926 1.461645,1.843569 0.27245,0.312357 0.554043,0.616397 0.837306,0.918901 0,0 3.643156,1.506061 3.643156,1.506061 v 0 c -0.319354,-0.29196 -0.613936,-0.60987 -0.911894,-0.923298 -0.528632,-0.579311 -1.03378,-1.177885 -1.487966,-1.818143 -0.522452,-0.694679 -1.033492,-1.396947 -1.530993,-2.109774 -0.425921,-0.577387 -0.839743,-1.170035 -1.375442,-1.653887 -0.757444,-0.674605 -1.568585,-1.288012 -2.293631,-1.999308 -0.892085,-0.878755 -1.763056,-1.791469 -2.453684,-2.841572 0,0 -3.612164,-1.569608 -3.612164,-1.569608 z" />
    <path
       style="fill:#ff0000;stroke-width:0.79375"
       id="path433"
       d="m 83.040137,62.88842 c -1.21167,1.849787 -2.658597,3.532539 -4.12165,5.185476 -1.060273,1.209479 -2.222931,2.321671 -3.325193,3.491508 -0.495671,0.519332 -0.972408,1.05592 -1.459614,1.583044 -0.248499,0.241168 -0.468948,0.51122 -0.718608,0.750983 -0.01257,0.009 -0.02514,0.0181 -0.03771,0.02712 0,0 3.391328,2.084176 3.391328,2.084176 v 0 c 0.01524,-0.01807 0.0305,-0.03615 0.04575,-0.05423 0.209529,-0.269332 0.419944,-0.537723 0.648327,-0.791731 0.472096,-0.537604 0.968192,-1.053663 1.414888,-1.613381 1.019988,-1.220788 2.068277,-2.417916 3.080708,-3.645136 1.439204,-1.709499 2.901265,-3.401658 4.453861,-5.009679 0,0 -3.372088,-2.008153 -3.372088,-2.008153 z" />
    <path
       style="fill:#ff0000;stroke-width:0.79375"
       id="path435"
       d="m 48.835037,76.496182 c 1.126514,1.167873 2.220621,2.366229 3.301878,3.575957 0.949672,1.057876 1.864024,2.145014 2.716501,3.282643 0.827111,1.165267 1.600459,2.367801 2.387282,3.560498 0.704739,1.047094 1.390471,2.106999 2.049558,3.183416 0.208405,0.346877 0.413658,0.695627 0.611542,1.048613 0,0 3.5901,1.595369 3.5901,1.595369 v 0 c -0.226002,-0.369748 -0.46128,-0.733672 -0.694915,-1.098625 -0.696598,-1.07905 -1.395198,-2.156764 -2.112645,-3.222117 -0.798603,-1.18496 -1.553644,-2.398696 -2.370048,-3.571456 -0.844018,-1.174568 -1.776904,-2.277343 -2.757421,-3.340394 -1.046803,-1.158005 -2.110444,-2.301462 -3.116958,-3.495133 0,0 -3.604874,-1.518771 -3.604874,-1.518771 z" />
    <path
       style="fill:#ff0000;stroke-width:0.79375"
       id="path437"
       d="m 69.902363,78.219765 c -1.423332,1.246412 -2.86979,2.465477 -4.330938,3.667302 -1.504789,1.202314 -3.033136,2.374363 -4.54338,3.569782 -0.602054,0.484613 -1.193583,0.982451 -1.775987,1.490506 -0.04387,0.03695 -0.08774,0.0739 -0.131609,0.110853 0,0 3.352811,2.07418 3.352811,2.07418 v 0 c 0.04082,-0.04085 0.08163,-0.0817 0.122454,-0.122558 0.526217,-0.538009 1.075624,-1.052036 1.640586,-1.549283 1.416331,-1.273041 2.884615,-2.485721 4.381545,-3.662784 1.498592,-1.198504 2.967355,-2.443871 4.577334,-3.4936 0,0 -3.292816,-2.084398 -3.292816,-2.084398 z" />
    <path
       style="fill:#ff0000;stroke-width:0.79375"
       id="path439"
       d="m 75.395817,78.940204 c 1.283096,1.237279 2.647195,2.385025 4.012713,3.529139 1.208058,0.994355 2.381549,2.028648 3.520437,3.101287 0.425918,0.395177 0.819163,0.821881 1.195893,1.263455 0,0 3.57519,1.51439 3.57519,1.51439 v 0 c -0.397547,-0.467125 -0.80822,-0.924007 -1.260824,-1.339173 -1.179185,-1.079047 -2.368889,-2.14748 -3.607919,-3.157953 -1.307704,-1.089051 -2.641383,-2.156973 -3.818266,-3.390611 0,0 -3.617224,-1.520534 -3.617224,-1.520534 z" />
    <path
       style="fill:#ff0000;stroke-width:0.79375"
       id="path441"
       d="m 56.352299,89.255422 c -1.145241,1.201213 -2.356411,2.336157 -3.571288,3.466033 -1.243949,1.132949 -2.465141,2.28976 -3.687466,3.445719 -0.849415,0.813695 -1.717608,1.607855 -2.627815,2.353149 0,0 3.286271,2.042377 3.286271,2.042377 v 0 c 0.848196,-0.805135 1.69128,-1.61543 2.52354,-2.437056 1.199028,-1.172911 2.430933,-2.311768 3.651263,-3.462404 1.215639,-1.148146 2.402165,-2.33449 3.732361,-3.352689 0,0 -3.306866,-2.055129 -3.306866,-2.055129 z" />
    <path
       style="fill:#ff0000;stroke-width:0.79375"
       id="path443"
       d="m 60.697482,90.227273 c 0.989613,0.867958 1.914557,1.808007 2.846113,2.737361 1.094906,1.079222 2.129964,2.215324 3.109266,3.399816 0.694095,0.849908 1.330521,1.74348 1.936372,2.657674 0.06885,0.107018 0.137708,0.21404 0.20656,0.321058 0,0 3.544369,1.553178 3.544369,1.553178 v 0 c -0.07455,-0.11075 -0.1491,-0.2215 -0.223652,-0.33225 -0.63227,-0.930637 -1.280049,-1.852213 -1.993733,-2.722904 -0.985153,-1.201957 -2.036903,-2.345362 -3.13149,-3.448656 -0.884496,-0.885153 -1.767736,-1.771845 -2.636213,-2.672736 0,0 -3.657592,-1.492541 -3.657592,-1.492541 z" />
    <path
       style="fill:#ff0000;stroke-width:0.79375"
       id="path445"
       d="m 82.444131,90.461411 c -0.122245,0.12551 -0.238892,0.256728 -0.366739,0.376526 -0.740211,0.693626 -1.539171,1.323967 -2.317887,1.972421 -0.676349,0.563211 -1.344756,1.135888 -2.01853,1.702176 -1.337376,1.137348 -2.686079,2.261322 -4.037539,3.381877 -0.332288,0.271076 -0.654818,0.554482 -0.968862,0.846519 -0.04505,0.04778 -0.094,0.08882 -0.15045,0.12175 0,0 3.373287,2.11509 3.373287,2.11509 v 0 c 0.05411,-0.0537 0.106979,-0.10852 0.158128,-0.16508 0.280074,-0.30218 0.55749,-0.60701 0.849156,-0.898188 1.221457,-1.21798 2.493092,-2.385427 3.796435,-3.515161 1.616832,-1.359657 3.271628,-2.680108 5.030824,-3.852595 0,0 -3.347823,-2.085335 -3.347823,-2.085335 z" />
    <rect
       style="fill:none;stroke:#000000;stroke-width:0.79375;stroke-opacity:1"
       id="rect1105"
       width="47.432674"
       height="48.193581"
       x="43.396473"
       y="57.558811" />
    <path
       sodipodi:type="star"
       style="fill:#ff0000;stroke:none;stroke-width:0.79375;stroke-opacity:1"
       id="path1384"
       inkscape:flatsided="true"
       sodipodi:sides="6"
       sodipodi:cx="132.97459"
       sodipodi:cy="87.678093"
       sodipodi:r1="5.8618422"
       sodipodi:r2="5.0765042"
       sodipodi:arg1="-0.52359878"
       sodipodi:arg2="0"
       inkscape:rounded="0"
       inkscape:randomized="0"
       d="m 138.0511,84.747172 0,5.861842 -5.07651,2.930921 -5.0765,-2.930921 0,-5.861842 5.0765,-2.930921 z"
       inkscape:transform-center-x="1.6752705e-06"
       inkscape:transform-center-y="-1.1046059e-06"
       transform="translate(10.153,-17.585533)" />
    <path
       sodipodi:type="star"
       style="fill:none;stroke:#000000;stroke-width:0.79375;stroke-opacity:1"
       id="path1436"
       inkscape:flatsided="true"
       sodipodi:sides="6"
       sodipodi:cx="143.12759"
       sodipodi:cy="70.09256"
       sodipodi:r1="27.419731"
       sodipodi:r2="22.127968"
       sodipodi:arg1="2.1177867e-07"
       sodipodi:arg2="0.52359899"
       inkscape:rounded="0"
       inkscape:randomized="0"
       d="m 170.54733,70.092566 -13.70988,23.74618 -27.41973,-5e-6 -13.70986,-23.746187 13.70987,-23.746181 27.41973,6e-6 z"
       inkscape:transform-center-x="1.8031824e-06" />
    <path
       sodipodi:type="star"
       style="fill:#ff0000;fill-opacity:1;stroke:none;stroke-width:0.79375;stroke-opacity:1"
       id="path1472"
       inkscape:flatsided="true"
       sodipodi:sides="3"
       sodipodi:cx="97.678406"
       sodipodi:cy="202.23743"
       sodipodi:r1="11.841751"
       sodipodi:r2="5.9208755"
       sodipodi:arg1="-1.5707963"
       sodipodi:arg2="-0.52359878"
       inkscape:rounded="0"
       inkscape:randomized="0"
       d="m 97.678406,190.39568 10.255254,17.76262 -20.510512,0 z"
       inkscape:transform-center-y="-2.9604403"
       transform="translate(10.255257,17.762627)"
       inkscape:transform-center-x="1.230594e-06" />
    <text
       xml:space="preserve"
       transform="scale(0.26458333)"
       id="text2496"
       style="white-space:pre;shape-inside:url(#rect2498);display:inline;fill:#ff0000;fill-opacity:1;stroke:none;stroke-width:3;stroke-opacity:1"><tspan
         x="311.76758"
         y="528.56745"
         id="tspan5133">Should be flipped around </tspan><tspan
         x="311.76758"
         y="543.56745"
         id="tspan5135">point! Not Rotated!</tspan></text>
    <path
       sodipodi:type="star"
       style="fill:#ff0000;fill-opacity:1;stroke:none;stroke-width:0.79375;stroke-opacity:1"
       id="path3481"
       inkscape:flatsided="true"
       sodipodi:sides="3"
       sodipodi:cx="97.678406"
       sodipodi:cy="202.23743"
       sodipodi:r1="11.841751"
       sodipodi:r2="5.9208755"
       sodipodi:arg1="-1.5707963"
       sodipodi:arg2="-0.52359878"
       inkscape:rounded="0"
       inkscape:randomized="0"
       d="m 97.678406,190.39568 10.255254,17.76262 -20.510511,0 z"
       inkscape:transform-center-y="2.9604357"
       inkscape:transform-center-x="-2.3471311e-06"
       transform="rotate(60,107.93366,208.1583)" />
    <path
       sodipodi:type="star"
       style="fill:#ff0000;fill-opacity:1;stroke:none;stroke-width:0.79375;stroke-opacity:1"
       id="path3507"
       inkscape:flatsided="true"
       sodipodi:sides="3"
       sodipodi:cx="97.678406"
       sodipodi:cy="202.23743"
       sodipodi:r1="11.841751"
       sodipodi:r2="5.9208755"
       sodipodi:arg1="-1.5707963"
       sodipodi:arg2="-0.52359878"
       inkscape:rounded="0"
       inkscape:randomized="0"
       d="m 97.678406,190.39568 10.255254,17.76262 -20.510512,0 z"
       inkscape:transform-center-y="-2.9604403"
       transform="translate(30.765769,-17.762624)"
       inkscape:transform-center-x="1.230594e-06" />
    <path
       sodipodi:type="star"
       style="fill:#ff0000;fill-opacity:1;stroke:none;stroke-width:0.79375;stroke-opacity:1"
       id="path3509"
       inkscape:flatsided="true"
       sodipodi:sides="3"
       sodipodi:cx="97.678406"
       sodipodi:cy="202.23743"
       sodipodi:r1="11.841751"
       sodipodi:r2="5.9208755"
       sodipodi:arg1="-1.5707963"
       sodipodi:arg2="-0.52359878"
       inkscape:rounded="0"
       inkscape:randomized="0"
       d="m 97.678406,190.39568 10.255254,17.76262 -20.510512,0 z"
       inkscape:transform-center-y="-2.9604403"
       transform="translate(-10.25526,-17.762626)"
       inkscape:transform-center-x="1.230594e-06" />
    <path
       sodipodi:type="star"
       style="fill:#ff0000;fill-opacity:1;stroke:none;stroke-width:0.79375;stroke-opacity:1"
       id="path3511"
       inkscape:flatsided="true"
       sodipodi:sides="3"
       sodipodi:cx="97.678406"
       sodipodi:cy="202.23743"
       sodipodi:r1="11.841751"
       sodipodi:r2="5.9208755"
       sodipodi:arg1="-1.5707963"
       sodipodi:arg2="-0.52359878"
       inkscape:rounded="0"
       inkscape:randomized="0"
       d="m 97.678406,190.39568 10.255254,17.76262 -20.510512,0 z"
       inkscape:transform-center-y="2.9604357"
       inkscape:transform-center-x="-2.3471311e-06"
       transform="rotate(60,87.516524,172.79478)" />
    <path
       sodipodi:type="star"
       style="fill:#ff0000;fill-opacity:1;stroke:none;stroke-width:0.79375;stroke-opacity:1"
       id="path3513"
       inkscape:flatsided="true"
       sodipodi:sides="3"
       sodipodi:cx="97.678406"
       sodipodi:cy="202.23743"
       sodipodi:r1="11.841751"
       sodipodi:r2="5.9208755"
       sodipodi:arg1="-1.5707963"
       sodipodi:arg2="-0.52359878"
       inkscape:rounded="0"
       inkscape:randomized="0"
       d="m 97.678406,190.39568 10.255254,17.76262 -20.510512,0 z"
       inkscape:transform-center-y="2.9604357"
       inkscape:transform-center-x="-2.3471311e-06"
       transform="rotate(60,128.44417,243.68355)" />
    <path
       sodipodi:type="star"
       style="fill:#ff0000;fill-opacity:1;stroke:none;stroke-width:0.79375;stroke-opacity:1"
       id="path3515"
       inkscape:flatsided="true"
       sodipodi:sides="3"
       sodipodi:cx="97.678406"
       sodipodi:cy="202.23743"
       sodipodi:r1="11.841751"
       sodipodi:r2="5.9208755"
       sodipodi:arg1="-1.5707963"
       sodipodi:arg2="-0.52359878"
       inkscape:rounded="0"
       inkscape:randomized="0"
       d="m 97.678406,190.39568 10.255254,17.76262 -20.510512,0 z"
       inkscape:transform-center-y="-2.9604403"
       transform="translate(51.276277,17.76263)"
       inkscape:transform-center-x="1.230594e-06" />
    <path
       sodipodi:type="star"
       style="fill:#ff0000;fill-opacity:1;stroke:none;stroke-width:0.79375;stroke-opacity:1"
       id="path3517"
       inkscape:flatsided="true"
       sodipodi:sides="3"
       sodipodi:cx="97.678406"
       sodipodi:cy="202.23743"
       sodipodi:r1="11.841751"
       sodipodi:r2="5.9208755"
       sodipodi:arg1="-1.5707963"
       sodipodi:arg2="-0.52359878"
       inkscape:rounded="0"
       inkscape:randomized="0"
       d="m 97.678406,190.39568 10.255254,17.76262 -20.510512,0 z"
       inkscape:transform-center-y="-2.9604403"
       transform="translate(-30.579022,17.762627)"
       inkscape:transform-center-x="1.230594e-06" />
    <path
       sodipodi:type="star"
       style="fill:#ff0000;fill-opacity:1;stroke:none;stroke-width:0.79375;stroke-opacity:1"
       id="path3519"
       inkscape:flatsided="true"
       sodipodi:sides="3"
       sodipodi:cx="97.678406"
       sodipodi:cy="202.23743"
       sodipodi:r1="11.841751"
       sodipodi:r2="5.9208755"
       sodipodi:arg1="-1.5707963"
       sodipodi:arg2="-0.52359878"
       inkscape:rounded="0"
       inkscape:randomized="0"
       d="m 97.678406,190.39568 10.255254,17.76262 -20.510512,0 z"
       inkscape:transform-center-y="2.9604357"
       inkscape:transform-center-x="-2.3471311e-06"
       transform="rotate(60,66.912634,208.1583)" />
    <path
       sodipodi:type="star"
       style="fill:#ff0000;fill-opacity:1;stroke:none;stroke-width:0.79375;stroke-opacity:1"
       id="path3521"
       inkscape:flatsided="true"
       sodipodi:sides="3"
       sodipodi:cx="97.678406"
       sodipodi:cy="202.23743"
       sodipodi:r1="11.841751"
       sodipodi:r2="5.9208755"
       sodipodi:arg1="-1.5707963"
       sodipodi:arg2="-0.52359878"
       inkscape:rounded="0"
       inkscape:randomized="0"
       d="m 97.678406,190.39568 10.255254,17.76262 -20.510512,0 z"
       inkscape:transform-center-y="2.9604357"
       inkscape:transform-center-x="-2.3471311e-06"
       transform="rotate(60,87.423147,243.68356)" />
    <path
       sodipodi:type="star"
       style="fill:none;fill-opacity:1;stroke:#000000;stroke-width:0.79375;stroke-opacity:1"
       id="path3523"
       inkscape:flatsided="true"
       sodipodi:sides="3"
       sodipodi:cx="107.93366"
       sodipodi:cy="196.31654"
       sodipodi:r1="95.388084"
       sodipodi:r2="47.694042"
       sodipodi:arg1="2.6179939"
       sodipodi:arg2="3.6651914"
       inkscape:rounded="0"
       inkscape:randomized="0"
       d="M 25.325157,244.01058 107.93366,100.92846 190.54217,244.01059 Z"
       inkscape:transform-center-x="1.3597941e-06"
       inkscape:transform-center-y="-23.847024" />
    <path
       sodipodi:type="star"
       style="fill:#ff0000;fill-opacity:1;stroke:none;stroke-width:0.79375;stroke-opacity:1"
       id="path3525"
       inkscape:flatsided="true"
       sodipodi:sides="3"
       sodipodi:cx="97.678406"
       sodipodi:cy="202.23743"
       sodipodi:r1="11.841751"
       sodipodi:r2="5.9208755"
       sodipodi:arg1="-1.5707963"
       sodipodi:arg2="-0.52359878"
       inkscape:rounded="0"
       inkscape:randomized="0"
       d="m 97.678406,190.39568 10.255254,17.76262 -20.510512,0 z"
       inkscape:transform-center-y="2.9604357"
       inkscape:transform-center-x="-2.3471311e-06"
       transform="rotate(60,128.44418,172.63305)" />
    <path
       sodipodi:type="star"
       style="fill:#ff0000;fill-opacity:1;stroke:none;stroke-width:0.79375;stroke-opacity:1"
       id="path3527"
       inkscape:flatsided="true"
       sodipodi:sides="3"
       sodipodi:cx="97.678406"
       sodipodi:cy="202.23743"
       sodipodi:r1="11.841751"
       sodipodi:r2="5.9208755"
       sodipodi:arg1="-1.5707963"
       sodipodi:arg2="-0.52359878"
       inkscape:rounded="0"
       inkscape:randomized="0"
       d="m 97.678406,190.39568 10.255254,17.76262 -20.510512,0 z"
       inkscape:transform-center-y="-2.9604403"
       transform="translate(10.255257,-53.287882)"
       inkscape:transform-center-x="1.230594e-06" />
    <path
       sodipodi:type="star"
       style="fill:#ff0000;fill-opacity:1;stroke:none;stroke-width:0.79375;stroke-opacity:1"
       id="path3529"
       inkscape:flatsided="true"
       sodipodi:sides="3"
       sodipodi:cx="97.678406"
       sodipodi:cy="202.23743"
       sodipodi:r1="11.841751"
       sodipodi:r2="5.9208755"
       sodipodi:arg1="-1.5707963"
       sodipodi:arg2="-0.52359878"
       inkscape:rounded="0"
       inkscape:randomized="0"
       d="m 97.678406,190.39568 10.255254,17.76262 -20.510512,0 z"
       inkscape:transform-center-y="2.9604357"
       inkscape:transform-center-x="-2.3471311e-06"
       transform="rotate(60,148.95469,208.1583)" />
    <path
       sodipodi:type="star"
       style="fill:#ff0000;fill-opacity:1;stroke:none;stroke-width:0.79375;stroke-opacity:1"
       id="path3531"
       inkscape:flatsided="true"
       sodipodi:sides="3"
       sodipodi:cx="97.678406"
       sodipodi:cy="202.23743"
       sodipodi:r1="11.841751"
       sodipodi:r2="5.9208755"
       sodipodi:arg1="-1.5707963"
       sodipodi:arg2="-0.52359878"
       inkscape:rounded="0"
       inkscape:randomized="0"
       d="m 97.678406,190.39568 10.255254,17.76262 -20.510512,0 z"
       inkscape:transform-center-y="2.9604357"
       inkscape:transform-center-x="-2.3471311e-06"
       transform="rotate(60,169.46521,172.63305)" />
    <path
       sodipodi:type="star"
       style="fill:#ff0000;fill-opacity:1;stroke:none;stroke-width:0.79375;stroke-opacity:1"
       id="path3533"
       inkscape:flatsided="true"
       sodipodi:sides="3"
       sodipodi:cx="97.678406"
       sodipodi:cy="202.23743"
       sodipodi:r1="11.841751"
       sodipodi:r2="5.9208755"
       sodipodi:arg1="-1.5707963"
       sodipodi:arg2="-0.52359878"
       inkscape:rounded="0"
       inkscape:randomized="0"
       d="m 97.678406,190.39568 10.255254,17.76262 -20.510512,0 z"
       inkscape:transform-center-y="2.9604357"
       inkscape:transform-center-x="-2.3471311e-06"
       transform="rotate(60,107.93365,279.2088)" />
    <path
       sodipodi:type="star"
       style="fill:#ff0000;fill-opacity:1;stroke:none;stroke-width:0.79375;stroke-opacity:1"
       id="path3535"
       inkscape:flatsided="true"
       sodipodi:sides="3"
       sodipodi:cx="97.678406"
       sodipodi:cy="202.23743"
       sodipodi:r1="11.841751"
       sodipodi:r2="5.9208755"
       sodipodi:arg1="-1.5707963"
       sodipodi:arg2="-0.52359878"
       inkscape:rounded="0"
       inkscape:randomized="0"
       d="m 97.678406,190.39568 10.255254,17.76262 -20.510512,0 z"
       inkscape:transform-center-y="2.9604357"
       inkscape:transform-center-x="-2.3471311e-06"
       transform="rotate(60,46.495494,172.79478)" />
    <path
       sodipodi:type="star"
       style="fill:#ff0000;stroke:none;stroke-width:0.79375;stroke-opacity:1"
       id="path4327"
       inkscape:flatsided="true"
       sodipodi:sides="6"
       sodipodi:cx="132.97459"
       sodipodi:cy="87.678093"
       sodipodi:r1="5.8618422"
       sodipodi:r2="5.0765042"
       sodipodi:arg1="-0.52359878"
       sodipodi:arg2="0"
       inkscape:rounded="0"
       inkscape:randomized="0"
       d="m 138.0511,84.747172 0,5.861842 -5.07651,2.930921 -5.0765,-2.930921 0,-5.861842 5.0765,-2.930921 z"
       inkscape:transform-center-x="1.6752705e-06"
       inkscape:transform-center-y="-1.1046059e-06"
       transform="translate(20.306008,-23.447375)" />
    <path
       sodipodi:type="star"
       style="fill:#ff0000;stroke:none;stroke-width:0.79375;stroke-opacity:1"
       id="path4329"
       inkscape:flatsided="true"
       sodipodi:sides="6"
       sodipodi:cx="132.97459"
       sodipodi:cy="87.678093"
       sodipodi:r1="5.8618422"
       sodipodi:r2="5.0765042"
       sodipodi:arg1="-0.52359878"
       sodipodi:arg2="0"
       inkscape:rounded="0"
       inkscape:randomized="0"
       d="m 138.0511,84.747172 0,5.861842 -5.07651,2.930921 -5.0765,-2.930921 0,-5.861842 5.0765,-2.930921 z"
       inkscape:transform-center-x="1.6752705e-06"
       inkscape:transform-center-y="-1.1046059e-06"
       transform="translate(-8.4650019e-6,-23.447375)" />
    <path
       sodipodi:type="star"
       style="fill:#ff0000;stroke:none;stroke-width:0.79375;stroke-opacity:1"
       id="path4331"
       inkscape:flatsided="true"
       sodipodi:sides="6"
       sodipodi:cx="132.97459"
       sodipodi:cy="87.678093"
       sodipodi:r1="5.8618422"
       sodipodi:r2="5.0765042"
       sodipodi:arg1="-0.52359878"
       sodipodi:arg2="0"
       inkscape:rounded="0"
       inkscape:randomized="0"
       d="m 138.0511,84.747172 0,5.861842 -5.07651,2.930921 -5.0765,-2.930921 0,-5.861842 5.0765,-2.930921 z"
       inkscape:transform-center-x="1.6752705e-06"
       inkscape:transform-center-y="-1.1046059e-06"
       transform="translate(10.153,-29.309217)" />
    <path
       sodipodi:type="star"
       style="fill:#ff0000;stroke:none;stroke-width:0.79375;stroke-opacity:1"
       id="path4333"
       inkscape:flatsided="true"
       sodipodi:sides="6"
       sodipodi:cx="132.97459"
       sodipodi:cy="87.678093"
       sodipodi:r1="5.8618422"
       sodipodi:r2="5.0765042"
       sodipodi:arg1="-0.52359878"
       sodipodi:arg2="0"
       inkscape:rounded="0"
       inkscape:randomized="0"
       d="m 138.0511,84.747172 0,5.861842 -5.07651,2.930921 -5.0765,-2.930921 0,-5.861842 5.0765,-2.930921 z"
       inkscape:transform-center-x="1.6752705e-06"
       inkscape:transform-center-y="-1.1046059e-06"
       transform="translate(10.153,-5.8618487)" />
    <path
       sodipodi:type="star"
       style="fill:#ff0000;stroke:none;stroke-width:0.79375;stroke-opacity:1"
       id="path4335"
       inkscape:flatsided="true"
       sodipodi:sides="6"
       sodipodi:cx="132.97459"
       sodipodi:cy="87.678093"
       sodipodi:r1="5.8618422"
       sodipodi:r2="5.0765042"
       sodipodi:arg1="-0.52359878"
       sodipodi:arg2="0"
       inkscape:rounded="0"
       inkscape:randomized="0"
       d="m 138.0511,84.747172 0,5.861842 -5.07651,2.930921 -5.0765,-2.930921 0,-5.861842 5.0765,-2.930921 z"
       inkscape:transform-center-x="1.6752705e-06"
       inkscape:transform-center-y="-1.1046059e-06"
       transform="translate(20.306008,-11.723691)" />
    <path
       sodipodi:type="star"
       style="fill:#ff0000;stroke:none;stroke-width:0.79375;stroke-opacity:1"
       id="path4337"
       inkscape:flatsided="true"
       sodipodi:sides="6"
       sodipodi:cx="132.97459"
       sodipodi:cy="87.678093"
       sodipodi:r1="5.8618422"
       sodipodi:r2="5.0765042"
       sodipodi:arg1="-0.52359878"
       sodipodi:arg2="0"
       inkscape:rounded="0"
       inkscape:randomized="0"
       d="m 138.0511,84.747172 0,5.861842 -5.07651,2.930921 -5.0765,-2.930921 0,-5.861842 5.0765,-2.930921 z"
       inkscape:transform-center-x="1.6752705e-06"
       inkscape:transform-center-y="-1.1046059e-06"
       transform="translate(-8.4133977e-6,-11.723691)" />
    <path
       sodipodi:type="star"
       style="fill:#ff0000;stroke:none;stroke-width:0.79375;stroke-opacity:1"
       id="path4339"
       inkscape:flatsided="true"
       sodipodi:sides="6"
       sodipodi:cx="132.97459"
       sodipodi:cy="87.678093"
       sodipodi:r1="5.8618422"
       sodipodi:r2="5.0765042"
       sodipodi:arg1="-0.52359878"
       sodipodi:arg2="0"
       inkscape:rounded="0"
       inkscape:randomized="0"
       d="m 138.0511,84.747172 0,5.861842 -5.07651,2.930921 -5.0765,-2.930921 0,-5.861842 5.0765,-2.930921 z"
       inkscape:transform-center-x="1.6752705e-06"
       inkscape:transform-center-y="-1.1046059e-06"
       transform="translate(-10.153017,-17.585533)" />
    <path
       sodipodi:type="star"
       style="fill:#ff0000;stroke:none;stroke-width:0.79375;stroke-opacity:1"
       id="path4341"
       inkscape:flatsided="true"
       sodipodi:sides="6"
       sodipodi:cx="132.97459"
       sodipodi:cy="87.678093"
       sodipodi:r1="5.8618422"
       sodipodi:r2="5.0765042"
       sodipodi:arg1="-0.52359878"
       sodipodi:arg2="0"
       inkscape:rounded="0"
       inkscape:randomized="0"
       d="m 138.0511,84.747172 0,5.861842 -5.07651,2.930921 -5.0765,-2.930921 0,-5.861842 5.0765,-2.930921 z"
       inkscape:transform-center-x="1.6752705e-06"
       inkscape:transform-center-y="-1.1046059e-06"
       transform="translate(30.459016,-17.585533)" />
    <path
       sodipodi:type="star"
       style="fill:#ff0000;stroke:none;stroke-width:0.79375;stroke-opacity:1"
       id="path4343"
       inkscape:flatsided="true"
       sodipodi:sides="6"
       sodipodi:cx="132.97459"
       sodipodi:cy="87.678093"
       sodipodi:r1="5.8618422"
       sodipodi:r2="5.0765042"
       sodipodi:arg1="-0.52359878"
       sodipodi:arg2="0"
       inkscape:rounded="0"
       inkscape:randomized="0"
       d="m 138.0511,84.747172 0,5.861842 -5.07651,2.930921 -5.0765,-2.930921 0,-5.861842 5.0765,-2.930921 z"
       inkscape:transform-center-x="1.6752705e-06"
       inkscape:transform-center-y="-1.1046059e-06"
       transform="translate(20.306008)" />
    <path
       sodipodi:type="star"
       style="fill:#ff0000;stroke:none;stroke-width:0.79375;stroke-opacity:1"
       id="path4345"
       inkscape:flatsided="true"
       sodipodi:sides="6"
       sodipodi:cx="132.97459"
       sodipodi:cy="87.678093"
       sodipodi:r1="5.8618422"
       sodipodi:r2="5.0765042"
       sodipodi:arg1="-0.52359878"
       sodipodi:arg2="0"
       inkscape:rounded="0"
       inkscape:randomized="0"
       d="m 138.0511,84.747172 0,5.861842 -5.07651,2.930921 -5.0765,-2.930921 0,-5.861842 5.0765,-2.930921 z"
       inkscape:transform-center-x="1.6752705e-06"
       inkscape:transform-center-y="-1.1046059e-06" />
    <path
       sodipodi:type="star"
       style="fill:#ff0000;stroke:none;stroke-width:0.79375;stroke-opacity:1"
       id="path4347"
       inkscape:flatsided="true"
       sodipodi:sides="6"
       sodipodi:cx="132.97459"
       sodipodi:cy="87.678093"
       sodipodi:r1="5.8618422"
       sodipodi:r2="5.0765042"
       sodipodi:arg1="-0.52359878"
       sodipodi:arg2="0"
       inkscape:rounded="0"
       inkscape:randomized="0"
       d="m 138.0511,84.747172 0,5.861842 -5.07651,2.930921 -5.0765,-2.930921 0,-5.861842 5.0765,-2.930921 z"
       inkscape:transform-center-x="1.6752705e-06"
       inkscape:transform-center-y="-1.1046059e-06"
       transform="translate(-8.5166061e-6,-35.171059)" />
    <path
       sodipodi:type="star"
       style="fill:#ff0000;stroke:none;stroke-width:0.79375;stroke-opacity:1"
       id="path4349"
       inkscape:flatsided="true"
       sodipodi:sides="6"
       sodipodi:cx="132.97459"
       sodipodi:cy="87.678093"
       sodipodi:r1="5.8618422"
       sodipodi:r2="5.0765042"
       sodipodi:arg1="-0.52359878"
       sodipodi:arg2="0"
       inkscape:rounded="0"
       inkscape:randomized="0"
       d="m 138.0511,84.747172 0,5.861842 -5.07651,2.930921 -5.0765,-2.930921 0,-5.861842 5.0765,-2.930921 z"
       inkscape:transform-center-x="1.6752705e-06"
       inkscape:transform-center-y="-1.1046059e-06"
       transform="translate(20.306008,-35.171059)" />
  </g>
</svg>
